<svg width="596" height="784" viewBox="0 0 596 784" fill="none" xmlns="http://www.w3.org/2000/svg">
<path d="M584.697 330.208C611.433 363.959 587.395 413.666 544.337 413.666L451.271 412.626C412.247 412.626 399.402 429.173 399.402 467.965L399.402 726.467C399.402 754.903 378.755 783.922 350.319 783.922L252.94 783.922C224.504 783.922 203.866 760.723 203.866 732.287L203.866 467.965C203.866 428.053 182.295 411.248 143.271 411.248L52.1172 413.666C9.05949 413.666 -14.9782 363.959 11.7577 330.208L257.868 19.5174C278.482 -6.50587 317.973 -6.50587 338.587 19.5174L584.697 330.208Z" fill="#F6F6F6"/>
<path d="M219.405 507.613C71.2785 580.578 -23.2392 396.364 148.674 282.692C152.671 280.048 124.328 252.705 124.328 252.705" stroke="black" stroke-width="20" stroke-linecap="round"/>
<path d="M378.076 507.613C526.202 580.578 620.72 396.364 448.807 282.692C444.809 280.049 473.153 252.706 473.153 252.706" stroke="black" stroke-width="20" stroke-linecap="round"/>
<path d="M273.071 180.804C258.115 198.176 229.255 216.107 209.585 177.755" stroke="black" stroke-width="12" stroke-linecap="round"/>
<path d="M378.591 182.505C363.635 199.876 334.774 217.808 315.105 179.455" stroke="black" stroke-width="12" stroke-linecap="round"/>
<ellipse cx="290.534" cy="264" rx="14" ry="15" fill="black"/>
</svg>
