<svg width="887" height="616" viewBox="0 0 887 616" fill="none" xmlns="http://www.w3.org/2000/svg">
<path fill-rule="evenodd" clip-rule="evenodd" d="M717.518 217.398C813.36 225.334 887.65 286.002 886.74 358.688C885.824 431.887 808.975 490.992 712.004 495.809C704.323 546.141 677.216 587.933 634.547 606.336C566.988 635.472 483.561 595.991 437.653 517.193C414.893 567.338 363.049 602.365 302.734 602.365C221.413 602.365 155.489 538.689 155.489 460.14C155.489 450.539 156.474 441.159 158.352 432.092C69.1353 426.508 -0.285164 384.335 0.344088 334.049C0.948148 285.777 65.8983 246.593 150.122 240.571C126.592 184.918 127.868 132.941 157.941 109.499C188.506 85.6722 240.398 97.8868 289.327 135.712C306.899 56.9001 357.202 0 416.514 0C479.8 0 532.828 64.7791 546.784 151.835C589.889 91.5605 647.039 60.2791 686.392 79.9625C722.489 98.0178 733.255 153.775 717.518 217.398Z" fill="#46A1FF"/>
</svg>
