<svg width="747" height="640" viewBox="0 0 747 640" fill="none" xmlns="http://www.w3.org/2000/svg">
<path fill-rule="evenodd" clip-rule="evenodd" d="M503.867 540.377C533.128 516.644 550.447 450.62 550.815 366.502C623.652 438.054 695.172 473.218 728.416 448C772.204 414.784 733.006 289.389 640.866 167.923C553.869 53.2389 450.782 -16.9393 402.686 3.53884C365.803 12.1061 342.393 77.5791 339.207 167.344C290.347 119.79 242.781 90.5297 208.566 87.902C204.654 86.8398 200.705 86.3912 196.735 86.5911C169.338 87.9709 146.079 119.969 130.606 170.61C96.1631 131.502 62.2959 112.28 36.9799 122.108C-14.2559 141.997 -11.0648 273.337 44.1074 415.463C99.2796 557.59 185.54 656.683 236.776 636.794C243.501 634.183 249.289 629.652 254.144 623.429C283.212 594.913 303.914 527.161 309.487 442.375C384.855 526.177 462.74 570.4 499.013 544.521C500.751 543.281 502.369 541.898 503.867 540.377Z" fill="#46A1FF"/>
</svg>
