<svg width="618" height="623" viewBox="0 0 618 623" fill="none" xmlns="http://www.w3.org/2000/svg">
<path d="M232.256 269.679L206.495 282.996L207.09 284.146L207.785 285.239L232.256 269.679ZM46.212 184.282L20.5569 170.762L20.5569 170.762L46.212 184.282ZM403.05 274.254L390.252 300.277L403.05 274.254ZM587.569 246.805L616.102 241.617L587.569 246.805ZM465.573 580.769L454.054 554.155L465.573 580.769ZM297.829 371.851L302.851 400.413L297.829 371.851ZM105.685 472.498L133.819 465.463L105.685 472.498ZM258.018 256.361C240.685 222.833 203.095 174.976 161.839 146.71C141.402 132.708 116.065 120.739 89.4622 122.146C59.979 123.704 36.1796 141.118 20.5569 170.762L71.8671 197.803C80.0336 182.308 87.5084 180.33 92.5241 180.065C100.42 179.647 112.807 183.423 129.058 194.557C161.177 216.563 192.82 256.543 206.495 282.996L258.018 256.361ZM20.5569 170.762C11.3491 188.233 6.43341 206.582 9.4206 224.747C12.5253 243.627 23.3883 257.682 36.6412 267.337C60.9885 285.076 97.0264 290.801 129.035 292.172C162.629 293.61 198.614 290.439 228.077 285.339C242.832 282.785 256.498 279.654 267.783 276.15C277.491 273.136 290.208 268.489 298.796 260.855L260.263 217.505C261.99 215.97 260.41 217.709 250.586 220.759C242.338 223.319 231.235 225.93 218.184 228.189C192.034 232.716 160.254 235.455 131.515 234.225C101.191 232.927 80.3294 227.406 70.7941 220.459C67.1058 217.772 66.7818 216.125 66.6519 215.336C66.4045 213.831 66.2066 208.544 71.8671 197.803L20.5569 170.762ZM298.796 260.855C312.595 248.589 360.519 205.188 393.453 159.245C409.45 136.929 424.977 109.921 428.004 83.3502C429.61 69.2548 427.851 53.8494 419.368 39.688C410.891 25.5372 397.571 15.7531 381.797 9.44362L360.256 63.2952C367.357 66.1354 369.19 68.789 369.613 69.4941C370.029 70.1886 370.915 72.0574 370.377 76.7848C369.115 87.8593 361.196 104.692 346.313 125.454C317.487 165.667 273.914 205.371 260.263 217.505L298.796 260.855ZM381.797 9.44362C365.798 3.04394 349.268 1.12345 333.363 4.98012C317.437 8.84151 304.524 17.9192 294.851 29.4585C276.145 51.7743 268.681 83.8926 269.458 115.603C271.035 180.017 306.894 259.28 390.252 300.277L415.849 248.23C354.466 218.042 328.564 160.064 327.44 114.183C326.867 90.745 332.817 74.452 339.3 66.7182C342.222 63.2327 344.847 61.8761 347.03 61.3468C349.232 60.8128 353.381 60.5452 360.256 63.2952L381.797 9.44362ZM390.252 300.277C440.258 324.87 495.092 336.661 538.121 331.652C559.518 329.162 581.454 322.077 597.289 306.522C614.51 289.604 620.629 266.518 616.102 241.617L559.037 251.992C560.609 260.64 558.341 263.479 556.643 265.146C553.559 268.176 546.045 272.338 531.415 274.041C502.39 277.42 458.865 269.386 415.849 248.23L390.252 300.277ZM616.102 241.617C613.319 226.314 606.821 212.117 594.948 201.691C583.051 191.244 568.742 187.205 555.289 186.631C530.023 185.553 502.27 196.371 478.136 209.239C428.676 235.611 375.208 281.236 348.165 315.884L393.888 351.57C415.643 323.695 462.691 283.204 505.425 260.418C527.388 248.708 543.652 244.187 552.817 244.578C556.58 244.738 557.091 245.636 556.678 245.273C556.289 244.932 557.942 245.968 559.037 251.992L616.102 241.617ZM348.165 315.884C331.255 337.551 321.565 370.623 317.173 403.181C312.647 436.729 313.101 474.533 320.124 508.794C326.978 542.228 341.064 576.896 367.776 598.55C397.048 622.279 435.151 625.537 477.093 607.383L454.054 554.155C427.373 565.703 413.247 560.747 404.3 553.494C392.792 544.166 382.67 525.084 376.943 497.147C371.385 470.037 370.886 438.85 374.652 410.935C378.552 382.029 386.399 361.164 393.888 351.57L348.165 315.884ZM477.093 607.383C494.525 599.838 508.484 588.475 517.896 573.604C527.248 558.827 531.047 542.277 530.981 525.92C530.852 493.989 516.154 461.007 495.244 433.162C453.774 377.94 376.443 328.584 292.807 343.289L302.851 400.413C357.985 390.719 415.612 423.71 448.865 467.991C465.316 489.897 472.92 510.956 472.982 526.155C473.011 533.364 471.377 538.651 468.887 542.585C466.458 546.424 462.165 550.644 454.054 554.155L477.093 607.383ZM292.807 343.289C286.422 344.411 282.126 344.891 277.519 345.411C272.701 345.956 267.364 346.562 260.203 347.972L271.407 404.88C276.101 403.956 279.459 403.561 284.031 403.045C288.813 402.504 294.601 401.863 302.851 400.413L292.807 343.289ZM260.203 347.972C244.265 351.11 227.421 353.311 206.008 357.036C186.058 360.507 164.13 365.031 144.393 372.199C125.06 379.22 104.389 389.972 90.3935 408.068C75.1707 427.751 70.7383 452.283 77.5513 479.532L133.819 465.463C130.72 453.067 133.34 447.344 136.273 443.551C140.435 438.17 149.023 432.224 164.192 426.715C178.958 421.352 196.774 417.514 215.949 414.178C233.659 411.097 255.321 408.047 271.407 404.88L260.203 347.972ZM77.5513 479.532C84.083 505.656 108.115 522.043 128.759 530.413C151.116 539.478 178.901 543.304 205.8 537.993C233.298 532.564 260.611 517.308 278.314 487.999C295.714 459.194 301.591 420.534 294.497 372.214L237.112 380.638C242.98 420.608 236.896 444.39 228.668 458.012C220.745 471.13 208.765 478.288 194.565 481.091C179.766 484.013 163.447 481.892 150.552 476.663C135.943 470.74 133.576 464.489 133.819 465.463L77.5513 479.532ZM294.497 372.214C290.954 348.075 287.814 303.006 256.728 254.118L207.785 285.239C230.999 321.747 233.137 353.558 237.112 380.638L294.497 372.214Z" fill="#3A6FEA"/>
</svg>
