<svg width="610" height="617" viewBox="0 0 610 617" fill="none" xmlns="http://www.w3.org/2000/svg">
<path d="M224.256 267.679L198.495 280.996L199.09 282.146L199.785 283.239L224.256 267.679ZM38.212 182.282L12.5569 168.762L12.5569 168.762L38.212 182.282ZM395.05 272.254L382.252 298.277L395.05 272.254ZM579.569 244.805L608.102 239.617L579.569 244.805ZM457.573 578.769L446.054 552.155L457.573 578.769ZM289.829 369.851L294.851 398.413L289.829 369.851ZM97.6852 470.498L125.819 463.463L97.6852 470.498ZM250.018 254.361C232.685 220.833 195.095 172.976 153.839 144.71C133.402 130.708 108.065 118.739 81.4622 120.146C51.979 121.704 28.1796 139.118 12.5569 168.762L63.8671 195.803C72.0336 180.308 79.5084 178.33 84.5241 178.065C92.4204 177.647 104.807 181.423 121.058 192.557C153.177 214.563 184.82 254.543 198.495 280.996L250.018 254.361ZM12.5569 168.762C3.34908 186.233 -1.56659 204.582 1.4206 222.747C4.52534 241.627 15.3883 255.682 28.6412 265.337C52.9885 283.076 89.0264 288.801 121.035 290.172C154.629 291.61 190.614 288.439 220.077 283.339C234.832 280.785 248.498 277.654 259.783 274.15C269.491 271.136 282.208 266.489 290.796 258.855L252.263 215.505C253.99 213.97 252.41 215.709 242.586 218.759C234.338 221.319 223.235 223.93 210.184 226.189C184.034 230.716 152.254 233.455 123.515 232.225C93.1914 230.927 72.3294 225.406 62.7941 218.459C59.1058 215.772 58.7818 214.125 58.6519 213.336C58.4045 211.831 58.2066 206.544 63.8671 195.803L12.5569 168.762ZM290.796 258.855C304.595 246.589 352.519 203.188 385.453 157.245C401.45 134.929 416.977 107.921 420.004 81.3502C421.61 67.2548 419.851 51.8494 411.368 37.688C402.891 23.5372 389.571 13.7531 373.797 7.44362L352.256 61.2952C359.357 64.1354 361.19 66.789 361.613 67.4941C362.029 68.1886 362.915 70.0574 362.377 74.7848C361.115 85.8593 353.196 102.692 338.313 123.454C309.487 163.667 265.914 203.371 252.263 215.505L290.796 258.855ZM373.797 7.44362C357.798 1.04394 341.268 -0.876549 325.363 2.98012C309.437 6.84151 296.524 15.9192 286.851 27.4585C268.145 49.7743 260.681 81.8926 261.458 113.603C263.035 178.017 298.894 257.28 382.252 298.277L407.849 246.23C346.466 216.042 320.564 158.064 319.44 112.183C318.867 88.745 324.817 72.452 331.3 64.7182C334.222 61.2327 336.847 59.8761 339.03 59.3468C341.232 58.8128 345.381 58.5452 352.256 61.2952L373.797 7.44362ZM382.252 298.277C432.258 322.87 487.092 334.661 530.121 329.652C551.518 327.162 573.454 320.077 589.289 304.522C606.51 287.604 612.629 264.518 608.102 239.617L551.037 249.992C552.609 258.64 550.341 261.479 548.643 263.146C545.559 266.176 538.045 270.338 523.415 272.041C494.39 275.42 450.865 267.386 407.849 246.23L382.252 298.277ZM608.102 239.617C605.319 224.314 598.821 210.117 586.948 199.691C575.051 189.244 560.742 185.205 547.289 184.631C522.023 183.553 494.27 194.371 470.136 207.239C420.676 233.611 367.208 279.236 340.165 313.884L385.888 349.57C407.643 321.695 454.691 281.204 497.425 258.418C519.388 246.708 535.652 242.187 544.817 242.578C548.58 242.738 549.091 243.636 548.678 243.273C548.289 242.932 549.942 243.968 551.037 249.992L608.102 239.617ZM340.165 313.884C323.255 335.551 313.565 368.623 309.173 401.181C304.647 434.729 305.101 472.533 312.124 506.794C318.978 540.228 333.064 574.896 359.776 596.55C389.048 620.279 427.151 623.537 469.093 605.383L446.054 552.155C419.373 563.703 405.247 558.747 396.3 551.494C384.792 542.166 374.67 523.084 368.943 495.147C363.385 468.037 362.886 436.85 366.652 408.935C370.552 380.029 378.399 359.164 385.888 349.57L340.165 313.884ZM469.093 605.383C486.525 597.838 500.484 586.475 509.896 571.604C519.248 556.827 523.047 540.277 522.981 523.92C522.852 491.989 508.154 459.007 487.244 431.162C445.774 375.94 368.443 326.584 284.807 341.289L294.851 398.413C349.985 388.719 407.612 421.71 440.865 465.991C457.316 487.897 464.92 508.956 464.982 524.155C465.011 531.364 463.377 536.651 460.887 540.585C458.458 544.424 454.165 548.644 446.054 552.155L469.093 605.383ZM284.807 341.289C278.422 342.411 274.126 342.891 269.519 343.411C264.701 343.956 259.364 344.562 252.203 345.972L263.407 402.88C268.101 401.956 271.459 401.561 276.031 401.045C280.813 400.504 286.601 399.863 294.851 398.413L284.807 341.289ZM252.203 345.972C236.265 349.11 219.421 351.311 198.008 355.036C178.058 358.507 156.13 363.031 136.393 370.199C117.06 377.22 96.3886 387.972 82.3935 406.068C67.1707 425.751 62.7383 450.283 69.5513 477.532L125.819 463.463C122.72 451.067 125.34 445.344 128.273 441.551C132.435 436.17 141.023 430.224 156.192 424.715C170.958 419.352 188.774 415.514 207.949 412.178C225.659 409.097 247.321 406.047 263.407 402.88L252.203 345.972ZM69.5513 477.532C76.083 503.656 100.115 520.043 120.759 528.413C143.116 537.478 170.901 541.304 197.8 535.993C225.298 530.564 252.611 515.308 270.314 485.999C287.714 457.194 293.591 418.534 286.497 370.214L229.112 378.638C234.98 418.608 228.896 442.39 220.668 456.012C212.745 469.13 200.765 476.288 186.565 479.091C171.766 482.013 155.447 479.892 142.552 474.663C127.943 468.74 125.576 462.489 125.819 463.463L69.5513 477.532ZM286.497 370.214C282.954 346.075 279.814 301.006 248.728 252.118L199.785 283.239C222.999 319.747 225.137 351.558 229.112 378.638L286.497 370.214Z" fill="#46A1FF"/>
</svg>
