<svg width="808" height="873" viewBox="0 0 808 873" fill="none" xmlns="http://www.w3.org/2000/svg">
<path d="M627.594 323.691L646.442 342.135L646.442 342.135L627.594 323.691ZM353.499 211.892L330.856 198.375L330.856 198.375L353.499 211.892ZM93.7668 654.117L70.2228 642.239L69.8798 642.919L69.5766 643.618L93.7668 654.117ZM161.991 685.172L184.126 699.506L184.126 699.506L161.991 685.172ZM237.397 137.36L216.44 121.354L237.397 137.36ZM783.202 418.598C792.075 390.544 800.292 358.144 804.519 328.139C808.528 299.68 809.836 267.885 799.996 244.651C794.599 231.909 784.823 219.461 768.622 213.838C753.188 208.481 736.93 211.11 721.961 216.972C692.692 228.435 655.729 257.238 608.747 305.247L646.442 342.135C692.82 294.743 723.134 273.154 741.193 266.082C749.888 262.677 752.307 264.003 751.329 263.663C749.585 263.058 750.045 261.947 751.431 265.22C755.156 274.014 756.214 292.952 752.294 320.781C748.591 347.064 741.199 376.504 732.916 402.694L783.202 418.598ZM608.747 305.247C548.545 366.766 509.264 426.087 486.663 477.214C464.558 527.219 456.941 572.848 465.686 605.246C470.193 621.944 480.118 638.336 498.112 646.242C516.072 654.134 535.21 650.554 551.612 642.278C583.407 626.235 617.519 586.824 650.812 525.011L604.377 500.002C572.437 559.304 544.758 586.662 527.854 595.191C519.906 599.201 517.967 597.359 519.329 597.957C520.725 598.571 518.531 598.639 516.605 591.502C512.483 576.231 514.741 544.144 534.901 498.538C554.566 454.054 589.944 399.868 646.442 342.135L608.747 305.247ZM650.812 525.011C684.733 462.029 706.243 397.282 715.494 339.966C724.58 283.671 722.435 230.723 704.591 193.877C695.387 174.872 681.189 158.619 660.849 150.267C640.468 141.897 617.886 143.086 595.135 151.237C551.093 167.016 499.516 211.194 440.491 286.275L481.953 318.871C539.628 245.509 583.505 211.428 612.924 200.888C626.904 195.879 635.554 196.894 640.814 199.054C646.114 201.231 651.964 206.212 657.123 216.865C668.005 239.335 671.846 279.396 663.427 331.562C655.172 382.706 635.687 441.869 604.377 500.002L650.812 525.011ZM440.491 286.275C380.865 362.12 333.721 441.173 300.178 510.738C266.903 579.746 246.131 641.244 240.731 681.852C239.364 692.134 238.834 702.106 239.733 711.063C240.562 719.327 242.954 730.504 250.792 739.462C260.434 750.481 273.963 753.45 286.165 751.004C296.545 748.923 305.807 743.132 313.445 737.106C329.128 724.734 347.5 703.613 368.613 674.162C390.032 644.282 415.326 604.319 444.635 552.892L398.812 526.777C370.07 577.211 345.767 615.507 325.748 643.434C305.421 671.789 290.513 688.021 280.78 695.699C275.711 699.698 274.231 699.606 275.797 699.292C279.187 698.612 285.833 699.417 290.483 704.731C293.331 707.985 292.624 709.92 292.21 705.797C291.866 702.366 291.948 696.806 293.012 688.804C297.337 656.277 315.391 600.619 347.685 533.645C379.71 467.227 424.879 391.47 481.953 318.871L440.491 286.275ZM444.635 552.892C503.618 449.395 538.999 359.681 556.073 286.917C572.897 215.22 572.788 156.34 555.911 117.147C547.221 96.9681 533.231 80.2561 513.212 71.956C493.131 63.6304 471.389 65.5929 450.91 74.0166C411.289 90.3139 369.813 133.113 330.856 198.375L376.142 225.408C413.19 163.344 447.269 132.543 470.973 122.793C482.156 118.193 489.018 119.02 493.012 120.676C497.067 122.357 502.62 126.743 507.47 138.007C517.673 161.701 520.632 207.089 504.727 274.869C489.073 341.581 455.931 426.552 398.812 526.777L444.635 552.892ZM330.856 198.375C210.366 400.224 162.561 459.206 70.2228 642.239L117.311 665.995C208.593 485.057 253.417 431.003 376.142 225.408L330.856 198.375ZM69.5766 643.618C54.4755 678.41 38.6289 717.29 26.4732 751.308C20.4022 768.298 15.1404 784.385 11.3476 798.312C7.72756 811.604 4.82845 825.073 4.73832 835.912C4.69861 840.686 5.05483 849.62 10.0469 857.856C12.9374 862.624 17.5931 867.465 24.405 870.322C31.0638 873.115 37.4793 873.047 42.38 872.129C51.1058 870.493 58.144 865.607 62.6319 862.061C67.7688 858.003 73.1456 852.752 78.7324 846.658C100.757 822.638 134.597 775.99 184.126 699.506L139.857 670.838C90.2809 747.394 58.5595 790.619 39.8585 811.015C35.264 816.026 32.0117 819.038 29.9358 820.678C28.9191 821.481 28.5262 821.682 28.6984 821.588C28.7789 821.543 30.1836 820.755 32.6617 820.291C35.3041 819.795 39.7814 819.579 44.805 821.686C49.9817 823.857 53.3052 827.475 55.1496 830.518C56.8183 833.271 57.2776 835.5 57.3935 836.137C57.5287 836.879 57.4719 837.036 57.4776 836.35C57.4895 834.919 57.7373 832.142 58.5643 827.713C59.365 823.424 60.5855 818.228 62.2354 812.171C65.538 800.043 70.3154 785.352 76.1388 769.055C87.7719 736.499 103.135 698.766 117.957 664.616L69.5766 643.618ZM184.126 699.506C309.582 505.775 394.156 281.48 414.73 145.977C419.866 112.151 421.351 81.821 417.449 58.1331C413.838 36.2197 403.331 8.79276 374.585 1.99482C361.418 -1.11925 348.354 1.42724 336.759 6.19317C325.135 10.9715 313.274 18.6594 301.231 28.4443C277.157 48.0048 248.991 78.7315 216.44 121.354L258.355 153.365C289.84 112.139 315.086 85.1422 334.489 69.3774C344.185 61.4998 351.579 57.1247 356.811 54.9738C362.074 52.8106 363.469 53.5617 362.448 53.3202C357.996 52.2675 362.534 49.2577 365.409 66.7066C367.991 82.3811 367.4 106.359 362.587 138.059C343.364 264.662 262.163 481.971 139.857 670.838L184.126 699.506ZM216.44 121.354C113.891 255.633 61.7544 328.164 34.2688 368.87C6.55703 409.911 2.94279 420.236 0.318589 424.775L45.9783 451.172C50.5357 443.289 51.5894 437.466 77.9785 398.384C104.594 358.967 155.991 287.403 258.355 153.365L216.44 121.354Z" fill="#3A6FEA"/>
</svg>
