<svg width="1052" height="326" viewBox="0 0 1052 326" fill="none" xmlns="http://www.w3.org/2000/svg">
<path d="M337.765 321.51L298.422 322.885L377.131 321.51H337.765ZM668.444 321.51L629.173 324.256L707.649 325.074L668.444 321.51ZM79.9125 321.781C80.221 277.059 87.7609 210.994 108.063 158.001C129.231 102.749 156.671 78.5268 189.09 79.3914L191.189 0.686179C105.509 -1.59862 58.4807 67.3466 34.5409 129.834C9.73564 194.58 1.52891 270.825 1.18123 321.238L79.9125 321.781ZM189.09 79.3914C223.021 80.2962 250.784 106.761 271.43 161.218C291.347 213.756 298.398 278.231 298.398 321.51H377.131C377.131 272.278 369.42 197.591 345.05 133.309C321.407 70.9452 275.359 2.9307 191.189 0.686179L189.09 79.3914ZM377.107 320.134C375.595 276.899 381.994 212.829 404.346 161.241C426.295 110.586 459.415 79.4054 510.978 79.4054V0.672189C416.096 0.672189 360.97 63.3155 332.103 129.939C303.639 195.632 296.653 272.297 298.422 322.885L377.107 320.134ZM510.978 79.4054C538.383 79.4054 557.949 87.8965 572.982 100.748C588.722 114.204 601.451 134.198 610.994 159.489C630.319 210.703 633.18 274.599 629.239 317.946L707.649 325.074C712.238 274.597 709.586 197.757 684.657 131.692C672.073 98.3432 652.988 65.5614 624.142 40.9018C594.588 15.637 556.794 0.672189 510.978 0.672189V79.4054ZM707.715 318.764C704.699 275.648 709.239 211.936 730.643 160.787C741.197 135.565 755.049 115.311 772.223 101.516C788.793 88.2068 810.253 79.4054 839.689 79.4054V0.672189C792.753 0.672189 753.801 15.3267 722.918 40.133C692.64 64.4537 671.996 96.976 658.012 130.394C630.339 196.525 625.627 273.548 629.173 324.256L707.715 318.764ZM839.689 79.4054C869.125 79.4054 890.584 88.2068 907.154 101.516C924.328 115.311 938.18 135.565 948.734 160.787C970.138 211.936 974.678 275.648 971.662 318.764L1050.2 324.256C1053.75 273.548 1049.04 196.525 1021.36 130.394C1007.38 96.976 986.737 64.4537 956.459 40.133C925.576 15.3267 886.624 0.672189 839.689 0.672189V79.4054Z" fill="#46A1FF"/>
</svg>
