<svg width="809" height="873" viewBox="0 0 809 873" fill="none" xmlns="http://www.w3.org/2000/svg">
<path d="M628.313 323.691L647.16 342.135L647.16 342.135L628.313 323.691ZM354.218 211.892L331.574 198.375L331.574 198.375L354.218 211.892ZM94.4856 654.117L70.9415 642.239L70.5985 642.919L70.2953 643.618L94.4856 654.117ZM162.71 685.172L184.845 699.506L184.845 699.506L162.71 685.172ZM238.116 137.36L217.158 121.354L238.116 137.36ZM783.921 418.598C792.793 390.544 801.011 358.144 805.238 328.139C809.247 299.68 810.555 267.885 800.715 244.651C795.318 231.909 785.542 219.461 769.341 213.838C753.907 208.481 737.649 211.11 722.68 216.972C693.411 228.435 656.448 257.238 609.466 305.247L647.16 342.135C693.538 294.743 723.852 273.154 741.912 266.082C750.607 262.677 753.026 264.003 752.048 263.663C750.304 263.058 750.764 261.947 752.15 265.22C755.874 274.014 756.933 292.952 753.013 320.781C749.31 347.064 741.918 376.504 733.635 402.694L783.921 418.598ZM609.466 305.247C549.263 366.766 509.983 426.087 487.382 477.214C465.276 527.219 457.66 572.848 466.405 605.246C470.912 621.944 480.836 638.336 498.831 646.242C516.791 654.134 535.929 650.554 552.331 642.278C584.126 626.235 618.238 586.824 651.53 525.011L605.096 500.002C573.156 559.304 545.477 586.662 528.572 595.191C520.624 599.201 518.686 597.359 520.047 597.957C521.444 598.571 519.25 598.639 517.323 591.502C513.201 576.231 515.459 544.144 535.62 498.538C555.285 454.054 590.663 399.868 647.16 342.135L609.466 305.247ZM651.53 525.011C685.452 462.029 706.962 397.282 716.213 339.966C725.298 283.671 723.154 230.723 705.31 193.877C696.106 174.872 681.907 158.619 661.568 150.267C641.187 141.897 618.605 143.086 595.854 151.237C551.812 167.016 500.235 211.194 441.209 286.275L482.672 318.871C540.346 245.509 584.224 211.428 613.643 200.888C627.623 195.879 636.273 196.894 641.532 199.054C646.833 201.231 652.683 206.212 657.842 216.865C668.724 239.335 672.565 279.396 664.145 331.562C655.891 382.706 636.406 441.869 605.096 500.002L651.53 525.011ZM441.209 286.275C381.584 362.12 334.44 441.173 300.897 510.738C267.622 579.746 246.85 641.244 241.45 681.852C240.083 692.134 239.553 702.106 240.451 711.063C241.281 719.327 243.672 730.504 251.511 739.462C261.152 750.481 274.682 753.45 286.884 751.004C297.263 748.923 306.525 743.132 314.164 737.106C329.847 724.734 348.219 703.613 369.331 674.162C390.751 644.282 416.045 604.319 445.353 552.892L399.531 526.777C370.789 577.211 346.485 615.507 326.466 643.434C306.14 671.789 291.232 688.021 281.499 695.699C276.429 699.698 274.95 699.606 276.516 699.292C279.906 698.612 286.552 699.417 291.202 704.731C294.05 707.985 293.343 709.92 292.929 705.797C292.585 702.366 292.667 696.806 293.731 688.804C298.056 656.277 316.109 600.619 348.403 533.645C380.429 467.227 425.598 391.47 482.672 318.871L441.209 286.275ZM445.353 552.892C504.336 449.395 539.718 359.681 556.792 286.917C573.616 215.22 573.507 156.34 556.63 117.147C547.94 96.9681 533.95 80.2561 513.93 71.956C493.85 63.6304 472.108 65.5929 451.629 74.0166C412.008 90.3139 370.531 133.113 331.574 198.375L376.861 225.408C413.908 163.344 447.988 132.543 471.692 122.793C482.875 118.193 489.737 119.02 493.731 120.676C497.786 122.357 503.339 126.743 508.189 138.007C518.392 161.701 521.35 207.089 505.446 274.869C489.792 341.581 456.65 426.552 399.531 526.777L445.353 552.892ZM331.574 198.375C211.085 400.224 163.28 459.206 70.9415 642.239L118.03 665.995C209.311 485.057 254.136 431.003 376.861 225.408L331.574 198.375ZM70.2953 643.618C55.1943 678.41 39.3477 717.29 27.192 751.308C21.121 768.298 15.8592 784.385 12.0663 798.312C8.44631 811.604 5.5472 825.073 5.45707 835.912C5.41736 840.686 5.77358 849.62 10.7657 857.856C13.6562 862.624 18.3119 867.465 25.1238 870.322C31.7825 873.115 38.1981 873.047 43.0988 872.129C51.8246 870.493 58.8627 865.607 63.3507 862.061C68.4876 858.003 73.8643 852.752 79.4512 846.658C101.475 822.638 135.315 775.99 184.845 699.506L140.575 670.838C90.9997 747.394 59.2782 790.619 40.5772 811.015C35.9828 816.026 32.7305 819.038 30.6545 820.678C29.6378 821.481 29.245 821.682 29.4171 821.588C29.4977 821.543 30.9024 820.755 33.3804 820.291C36.0228 819.795 40.5002 819.579 45.5237 821.686C50.7004 823.857 54.024 827.475 55.8683 830.518C57.537 833.271 57.9964 835.5 58.1122 836.137C58.2474 836.879 58.1906 837.036 58.1963 836.35C58.2082 834.919 58.456 832.142 59.283 827.713C60.0837 823.424 61.3043 818.228 62.9541 812.171C66.2568 800.043 71.0342 785.352 76.8576 769.055C88.4907 736.499 103.854 698.766 118.676 664.616L70.2953 643.618ZM184.845 699.506C310.301 505.775 394.874 281.48 415.449 145.977C420.585 112.151 422.07 81.821 418.167 58.1331C414.557 36.2197 404.05 8.79276 375.304 1.99482C362.136 -1.11925 349.072 1.42724 337.478 6.19317C325.854 10.9715 313.993 18.6594 301.95 28.4443C277.875 48.0048 249.709 78.7315 217.158 121.354L259.074 153.365C290.558 112.139 315.805 85.1422 335.208 69.3774C344.904 61.4998 352.297 57.1247 357.53 54.9738C362.792 52.8106 364.187 53.5617 363.166 53.3202C358.715 52.2675 363.253 49.2577 366.128 66.7066C368.71 82.3811 368.119 106.359 363.306 138.059C344.082 264.662 262.882 481.971 140.575 670.838L184.845 699.506ZM217.158 121.354C114.61 255.633 62.4731 328.164 34.9875 368.87C7.27578 409.911 3.66154 420.236 1.03734 424.775L46.6971 451.172C51.2544 443.289 52.3082 437.466 78.6973 398.384C105.313 358.967 156.71 287.403 259.074 153.365L217.158 121.354Z" fill="#46A1FF"/>
</svg>
