<svg width="1051" height="326" viewBox="0 0 1051 326" fill="none" xmlns="http://www.w3.org/2000/svg">
<path d="M337.046 321.51L297.703 322.885L376.412 321.51H337.046ZM667.725 321.51L628.454 324.256L706.93 325.074L667.725 321.51ZM79.1938 321.781C79.5022 277.059 87.0421 210.994 107.344 158.001C128.512 102.749 155.952 78.5268 188.372 79.3914L190.471 0.686179C104.791 -1.59862 57.7619 67.3466 33.8222 129.834C9.01689 194.58 0.810157 270.825 0.462476 321.238L79.1938 321.781ZM188.372 79.3914C222.302 80.2962 250.066 106.761 270.711 161.218C290.628 213.756 297.679 278.231 297.679 321.51H376.412C376.412 272.278 368.701 197.591 344.331 133.309C320.689 70.9452 274.64 2.9307 190.471 0.686179L188.372 79.3914ZM376.388 320.134C374.877 276.899 381.275 212.829 403.627 161.241C425.576 110.586 458.696 79.4054 510.259 79.4054V0.672189C415.378 0.672189 360.251 63.3155 331.384 129.939C302.921 195.632 295.934 272.297 297.703 322.885L376.388 320.134ZM510.259 79.4054C537.664 79.4054 557.23 87.8965 572.263 100.748C588.004 114.204 600.732 134.198 610.275 159.489C629.601 210.703 632.461 274.599 628.52 317.946L706.93 325.074C711.519 274.597 708.868 197.757 683.939 131.692C671.354 98.3432 652.27 65.5614 623.424 40.9018C593.87 15.637 556.075 0.672189 510.259 0.672189V79.4054ZM706.996 318.764C703.981 275.648 708.52 211.936 729.924 160.787C740.478 135.565 754.33 115.311 771.505 101.516C788.075 88.2068 809.534 79.4054 838.97 79.4054V0.672189C792.035 0.672189 753.083 15.3267 722.199 40.133C691.921 64.4537 671.278 96.976 657.293 130.394C629.62 196.525 624.908 273.548 628.454 324.256L706.996 318.764ZM838.97 79.4054C868.406 79.4054 889.865 88.2068 906.435 101.516C923.61 115.311 937.461 135.565 948.016 160.787C969.42 211.936 973.959 275.648 970.944 318.764L1049.49 324.256C1053.03 273.548 1048.32 196.525 1020.65 130.394C1006.66 96.976 986.019 64.4537 955.74 40.133C924.857 15.3267 885.905 0.672189 838.97 0.672189V79.4054Z" fill="#3A6FEA"/>
</svg>
