<svg width="512" height="512" viewBox="0 0 512 512" fill="none" xmlns="http://www.w3.org/2000/svg">
<g clip-path="url(#clip0_16_1863)">
<rect width="512" height="512" fill="#3982FF"/>
<path d="M513.672 34.7077C540.953 32.922 561.136 50.2977 584.082 89.5249" stroke="black" stroke-width="5.37589" stroke-linecap="round"/>
<path d="M457.391 140.5C432.769 134.811 396.486 124.903 377.685 112.457C363.626 103.164 353.806 88.289 350.81 71.7435C343.473 34.2807 380.118 1.42799 416.875 12.4419C418.938 13.0528 420.946 13.8541 423.006 14.677V14.677C424.419 15.2415 426.007 14.5386 426.539 13.1135V13.1135C427.316 11.0348 428.073 9.01013 429.008 7.07196C445.572 -27.5401 494.529 -32.5719 517.325 -1.95055C527.556 11.3929 531.964 28.6634 529.388 45.3179C525.958 67.6026 508.893 101.121 496.547 123.17C495.128 125.705 492.598 129.995 490.114 134.16C485.946 141.149 477.827 144.742 469.851 143.128C465.098 142.165 460.221 141.154 457.391 140.5Z" fill="#E7262F"/>
<path d="M415.311 65.1597C420.427 65.8298 429.014 65.7856 433.447 57.1333M401.025 48.1139C403.533 47.249 409.246 45.7688 412.04 46.7666C415.531 48.0138 408.24 49.1828 401.78 53.8055M435.32 37.9332C432.262 38.5516 425.523 40.5051 423.03 43.3723C419.913 46.9563 428.584 42.9717 437.425 44.3501" stroke="black" stroke-width="3.22553" stroke-linecap="round"/>
<ellipse cx="399.761" cy="62.195" rx="5.24149" ry="2.95674" transform="rotate(-13.1268 399.761 62.195)" fill="#EF353E"/>
<ellipse cx="445.037" cy="48.4606" rx="5.24149" ry="2.95674" transform="rotate(-13.1268 445.037 48.4606)" fill="#EF353E"/>
<path d="M398.544 111.967C366.59 126.109 351.499 111.007 325.547 71.229M325.547 71.229C326.558 70.1935 323.023 62.2049 308.092 63.6689M325.547 71.229L318.89 69.4718M325.547 71.229C324.542 70.8408 320.506 74.7827 316.783 73.3439M325.547 71.229C324.345 71.6137 321.724 80.8569 314.184 77.4337" stroke="black" stroke-width="5.37589" stroke-linecap="round"/>
</g>
<defs>
<clipPath id="clip0_16_1863">
<rect width="512" height="512" fill="white"/>
</clipPath>
</defs>
</svg>
