<svg width="512" height="512" viewBox="0 0 512 512" fill="none" xmlns="http://www.w3.org/2000/svg">
<g clip-path="url(#clip0_16_1845)">
<rect width="512" height="512" fill="#3982FF"/>
<path d="M503.372 402.945C503.496 399.645 503.316 396.287 502.808 392.901C498.444 363.798 471.538 343.71 442.712 348.032C425.075 350.677 410.806 361.848 403.386 376.788C393.163 370.46 380.77 367.584 368 369.499C339.451 373.78 319.726 400.4 323.59 429.183L323.584 429.184C291.555 433.987 269.523 464.095 274.372 496.432C279.221 528.769 309.116 551.09 341.144 546.287L511.807 520.695C543.834 515.892 565.867 485.785 561.018 453.447C556.633 424.208 531.772 403.159 503.372 402.945Z" fill="#9C71DA"/>
<path d="M367.721 407.716C369.689 404.619 375.08 399.888 380.906 405.739M388.972 404.53C390.939 401.433 396.33 396.702 402.156 402.553" stroke="black" stroke-width="3.7643" stroke-linecap="round"/>
<ellipse cx="388.177" cy="425.677" rx="4.39168" ry="4.70537" transform="rotate(-17.8255 388.177 425.677)" fill="black"/>
<path d="M278.564 474.944C242.688 435.599 299.879 391.813 351.576 435.13C352.778 436.138 360.247 425.266 360.247 425.266" stroke="black" stroke-width="6.27383" stroke-linecap="round"/>
<path d="M503.459 438.988C500.297 417.904 455.836 387.935 421.98 422.342C420.88 423.46 410.797 415.454 410.797 415.454" stroke="black" stroke-width="6.27383" stroke-linecap="round"/>
<mask id="mask0_16_1845" style="mask-type:alpha" maskUnits="userSpaceOnUse" x="265" y="417" width="31" height="62">
<path d="M278.564 474.944C253.671 442.199 284.514 424.727 292.712 420.168" stroke="black" stroke-width="6.27383" stroke-linecap="round"/>
</mask>
<g mask="url(#mask0_16_1845)">
<path d="M493.16 403.701C493.278 400.556 493.106 397.355 492.622 394.128C488.463 366.386 462.818 347.237 435.344 351.357C418.534 353.878 404.933 364.526 397.862 378.767C388.118 372.735 376.306 369.993 364.135 371.818C336.925 375.899 318.125 401.273 321.808 428.709L321.802 428.71C291.275 433.288 270.276 461.986 274.898 492.81C279.521 523.634 308.014 544.911 338.54 540.333L501.201 515.941C531.727 511.364 552.726 482.665 548.104 451.841C543.924 423.97 520.229 403.906 493.16 403.701Z" fill="#9C71DA"/>
</g>
</g>
<defs>
<clipPath id="clip0_16_1845">
<rect width="512" height="512" fill="white"/>
</clipPath>
</defs>
</svg>
