<svg width="512" height="512" viewBox="0 0 512 512" fill="none" xmlns="http://www.w3.org/2000/svg">
<g clip-path="url(#clip0_16_1839)">
<rect width="512" height="512" fill="#3982FF"/>
<path d="M468.313 473.522C490.994 491.382 494.573 519.275 484.892 566.276" stroke="black" stroke-width="5.67664" stroke-linecap="round"/>
<path d="M349.426 516.849C334.11 494.998 312.617 461.6 306.643 438.553C302.165 421.33 304.958 402.717 314.288 387.611C334.978 353.016 386.946 353.094 408.03 387.695C409.219 389.631 410.23 391.678 411.267 393.779V393.779C411.977 395.22 413.721 395.789 415.145 395.046V395.046C417.222 393.962 419.246 392.907 421.349 392.045C458.793 376.564 500.785 407.18 497.063 447.318C495.675 465.019 486.942 481.691 473.16 492.949C454.732 508.025 417.668 522.294 392.406 530.889C389.502 531.878 384.486 533.459 379.595 534.976C371.388 537.521 362.476 534.609 357.354 527.71C354.301 523.599 351.186 519.361 349.426 516.849Z" fill="#E7262F"/>
<path d="M417.377 432.012C416.087 428.953 411.988 423.921 405.91 428.266M398.896 425.974C397.606 422.915 393.506 417.884 387.429 422.229" stroke="black" stroke-width="3.40598" stroke-linecap="round"/>
<ellipse rx="3.97365" ry="4.25748" transform="matrix(-0.887913 -0.460011 -0.460011 0.887913 396.426 444.962)" fill="black"/>
<path d="M323.367 452.897C288.292 441.439 287.107 418.926 294.816 369.37M294.816 369.37C296.341 369.271 299.205 360.502 286.448 351.109M294.816 369.37L290.83 363.29M294.816 369.37C294.301 368.355 288.348 368.601 286.441 364.842M294.816 369.37C293.601 368.823 285.016 374.23 281.513 366.218" stroke="black" stroke-width="5.67664" stroke-linecap="round"/>
</g>
<defs>
<clipPath id="clip0_16_1839">
<rect width="512" height="512" fill="white"/>
</clipPath>
</defs>
</svg>
