<svg width="512" height="512" viewBox="0 0 512 512" fill="none" xmlns="http://www.w3.org/2000/svg">
<g clip-path="url(#clip0_16_1851)">
<rect width="512" height="512" fill="#3982FF"/>
<path d="M527.543 397.173C527.543 391.554 522.989 387 517.37 387L402.673 387C397.055 387 392.501 391.554 392.501 397.173L392.501 525.138C392.501 534.1 403.251 538.683 409.717 532.477L452.978 490.96C456.914 487.182 463.129 487.182 467.066 490.96L510.327 532.477C516.793 538.683 527.543 534.1 527.543 525.138L527.543 397.173Z" fill="#5CB500"/>
<path d="M445.697 422.784C447.647 420.537 452.538 417.392 456.505 422.784M463.117 422.784C465.067 420.537 469.959 417.392 473.926 422.784" stroke="black" stroke-width="3.0518" stroke-linecap="round"/>
<ellipse cx="459.939" cy="439.643" rx="3.56044" ry="3.81475" transform="rotate(-9.29714 459.939 439.643)" fill="black"/>
<path d="M518.643 469.907C528.719 474.799 559.631 484.658 572.601 523.314" stroke="black" stroke-width="5.08634" stroke-linecap="round"/>
<path d="M401.573 475.629C368.512 475.629 350.43 457.293 343.207 412.94M343.207 412.94C344.479 412.432 344.479 404.166 331 399.716M343.207 412.94L338.121 408.871M343.207 412.94C342.487 412.22 337.485 414.085 334.815 411.414M343.207 412.94C342.02 412.813 336.213 419.807 331 413.958" stroke="black" stroke-width="5.08634" stroke-linecap="round"/>
</g>
<defs>
<clipPath id="clip0_16_1851">
<rect width="512" height="512" fill="white"/>
</clipPath>
</defs>
</svg>
