<svg width="512" height="512" viewBox="0 0 512 512" fill="none" xmlns="http://www.w3.org/2000/svg">
<g clip-path="url(#clip0_16_1869)">
<rect width="512" height="512" fill="#3982FF"/>
<path d="M338.896 89.4231C337.702 85.9226 336.814 82.261 336.27 78.4649C331.588 45.8327 353.995 15.6203 386.316 10.9835C406.092 8.14653 424.998 15.5416 437.766 29.185C446.7 19.1057 459.072 12.0322 473.39 9.97815C505.401 5.38593 535.131 27.6029 540.247 59.7311L540.254 59.73C576.166 54.5781 609.495 79.7945 614.696 116.053C619.898 152.311 595.002 185.881 559.09 191.032L367.733 218.484C331.822 223.636 298.493 198.42 293.291 162.161C288.588 129.376 308.491 98.7914 338.896 89.4231Z" fill="#9C71DA"/>
<path d="M374.8 99.257C396.2 108.612 440.025 98.5974 434.262 58.4218M373.813 68.8687C377.981 71.9391 387.295 75.7386 391.205 66.3736M401.641 64.8766C405.809 67.947 415.122 71.7466 419.033 62.3816" stroke="black" stroke-width="4.21682" stroke-linecap="round"/>
<path d="M294.716 226.475C270.37 192.87 270.221 149.759 312.708 124.139" stroke="black" stroke-width="7.02804" stroke-linecap="round"/>
</g>
<defs>
<clipPath id="clip0_16_1869">
<rect width="512" height="512" fill="white"/>
</clipPath>
</defs>
</svg>
