<svg width="18029" height="894" viewBox="0 0 18029 894" fill="none" xmlns="http://www.w3.org/2000/svg">
<path d="M114.728 48C44.0226 200.458 -26.0199 449.253 259.453 224.763" stroke="#3A6FEA" stroke-width="103.848"/>
<path d="M522.654 116.039L714.941 375.754M866.7 628.256L714.941 375.754M714.941 375.754L950.143 213.604M714.941 375.754L781.972 48M714.941 375.754L924.468 466.503M714.941 375.754L467.453 372.147M714.941 375.754L694.677 542.244M714.941 375.754L481.574 673.187" stroke="#3A6FEA" stroke-width="51.35"/>
<path d="M1369.28 48L1359.54 403.686M1359.54 403.686L1158.14 562.852M1359.54 403.686L1474.85 635.938M1359.54 403.686L1538.19 499.51M1359.54 403.686L1465.11 350.09M1359.54 403.686L1223.11 182.803M1359.54 403.686L1223.11 328.976M1359.54 403.686L1169.51 439.417M1359.54 403.686L1270.21 696.031M1359.54 403.686L1369.28 562.852M1359.54 403.686L1434.25 252.641M1359.54 403.686H1608.03" stroke="#3A6FEA" stroke-width="42.2276"/>
<path d="M1873.68 119.059L2053.34 386.534M2233 654.009L2053.34 386.534M2053.34 386.534L2320.14 220.954M2053.34 386.534L2144.51 48M2053.34 386.534L2293.33 485.077M2053.34 386.534H1816.03M2053.34 386.534V564.18M2053.34 386.534L1830.78 700.934" stroke="#3A6FEA" stroke-width="53.6291"/>
<path d="M2826.89 48H3038.03L2998.67 228.973L3203.2 162.903L3272.14 295.042L3019.07 382.493L3260.64 494.5L3134.14 552.139L2950.76 449.254L2877.16 787.691L2720.61 654.116L2752.06 474.763L2528.14 552.139V392.71L2726.78 323.587L2558.14 228.973L2601.39 162.903L2787.1 274.934L2826.89 48Z" fill="#3A6FEA"/>
<path d="M3787.6 507.259L3480.14 460.062L3787.6 401.974L3611.65 180.513L3870.95 343.886L3787.6 58.8915L3956.15 303.951L4104.33 48L4069.13 329.364L4280.28 289.429L4126.55 412.866L4332.14 525.411H4089.51V815.852L3946.89 558.086L3728.33 757.764L3787.6 507.259Z" fill="#3A6FEA"/>
<path d="M4540.14 413.679C4628.89 370.593 4855.22 237.137 5050.55 48" stroke="#3A6FEA" stroke-width="103.848"/>
<ellipse cx="5291.05" cy="336.017" rx="32.5" ry="288.017" fill="#3A6FEA"/>
<path fill-rule="evenodd" clip-rule="evenodd" d="M6034.87 588.377C6064.13 564.644 6081.45 498.62 6081.82 414.502C6154.65 486.054 6226.17 521.218 6259.42 496C6303.2 462.784 6264.01 337.389 6171.87 215.923C6084.87 101.239 5981.78 31.0607 5933.69 51.5388C5896.8 60.1061 5873.39 125.579 5870.21 215.344C5821.35 167.79 5773.78 138.53 5739.57 135.902C5735.65 134.84 5731.71 134.391 5727.73 134.591C5700.34 135.971 5677.08 167.969 5661.61 218.61C5627.16 179.501 5593.3 160.28 5567.98 170.108C5516.74 189.997 5519.94 321.337 5575.11 463.463C5630.28 605.59 5716.54 704.683 5767.78 684.794C5774.5 682.183 5780.29 677.652 5785.14 671.429C5814.21 642.913 5834.91 575.161 5840.49 490.375C5915.85 574.177 5993.74 618.4 6030.01 592.521C6031.75 591.281 6033.37 589.898 6034.87 588.377Z" fill="#3A6FEA"/>
<path fill-rule="evenodd" clip-rule="evenodd" d="M7202.52 265.398C7298.36 273.334 7372.65 334.002 7371.74 406.688C7370.82 479.887 7293.97 538.992 7197 543.809C7189.32 594.141 7162.22 635.933 7119.55 654.336C7051.99 683.472 6968.56 643.991 6922.65 565.193C6899.89 615.338 6848.05 650.365 6787.73 650.365C6706.41 650.365 6640.49 586.689 6640.49 508.14C6640.49 498.539 6641.47 489.159 6643.35 480.092C6554.14 474.508 6484.71 432.335 6485.34 382.049C6485.95 333.777 6550.9 294.593 6635.12 288.571C6611.59 232.918 6612.87 180.941 6642.94 157.499C6673.51 133.672 6725.4 145.887 6774.33 183.712C6791.9 104.9 6842.2 48 6901.51 48C6964.8 48 7017.83 112.779 7031.78 199.835C7074.89 139.561 7132.04 108.279 7171.39 127.963C7207.49 146.018 7218.26 201.775 7202.52 265.398Z" fill="#3A6FEA"/>
<path d="M7579.75 224.191L7710.8 173.568L7826.83 289.325L7971.01 238.737L8068.64 351.83" stroke="#3A6FEA" stroke-width="95"/>
<path d="M8497.36 615.016L8296.83 65.2871L8476.61 334.965L8569.96 144.808L8843.1 352.252L8983.13 144.808L9213.04 300.391L9392.83 48L9225.14 654.776L9057.46 352.252L8856.93 654.776L8608 388.555L8497.36 615.016Z" fill="#3A6FEA"/>
<path d="M9601.67 277.792C9595.04 233.233 9624.65 124.892 9796.11 48" stroke="#3A6FEA" stroke-width="103.848"/>
<path d="M10236.3 317.679L10210.5 330.996L10211.1 332.146L10211.8 333.239L10236.3 317.679ZM10050.2 232.282L10024.6 218.762L10024.6 218.762L10050.2 232.282ZM10407.1 322.254L10394.3 348.277L10407.1 322.254ZM10591.6 294.805L10620.1 289.617L10591.6 294.805ZM10469.6 628.769L10458.1 602.155L10469.6 628.769ZM10301.8 419.851L10306.9 448.413L10301.8 419.851ZM10109.7 520.498L10137.8 513.463L10109.7 520.498ZM10262 304.361C10244.7 270.833 10207.1 222.976 10165.8 194.71C10145.4 180.708 10120.1 168.739 10093.5 170.146C10064 171.704 10040.2 189.118 10024.6 218.762L10075.9 245.803C10084 230.308 10091.5 228.33 10096.5 228.065C10104.4 227.647 10116.8 231.423 10133.1 242.557C10165.2 264.563 10196.8 304.543 10210.5 330.996L10262 304.361ZM10024.6 218.762C10015.3 236.233 10010.4 254.582 10013.4 272.747C10016.5 291.627 10027.4 305.682 10040.6 315.337C10065 333.076 10101 338.801 10133 340.172C10166.6 341.61 10202.6 338.439 10232.1 333.339C10246.8 330.785 10260.5 327.654 10271.8 324.15C10281.5 321.136 10294.2 316.489 10302.8 308.855L10264.3 265.505C10266 263.97 10264.4 265.709 10254.6 268.759C10246.3 271.319 10235.2 273.93 10222.2 276.189C10196 280.716 10164.3 283.455 10135.5 282.225C10105.2 280.927 10084.3 275.406 10074.8 268.459C10071.1 265.772 10070.8 264.125 10070.7 263.336C10070.4 261.831 10070.2 256.544 10075.9 245.803L10024.6 218.762ZM10302.8 308.855C10316.6 296.589 10364.5 253.188 10397.5 207.245C10413.4 184.929 10429 157.921 10432 131.35C10433.6 117.255 10431.9 101.849 10423.4 87.688C10414.9 73.5372 10401.6 63.7531 10385.8 57.4436L10364.3 111.295C10371.4 114.135 10373.2 116.789 10373.6 117.494C10374 118.189 10374.9 120.057 10374.4 124.785C10373.1 135.859 10365.2 152.692 10350.3 173.454C10321.5 213.667 10277.9 253.371 10264.3 265.505L10302.8 308.855ZM10385.8 57.4436C10369.8 51.0439 10353.3 49.1235 10337.4 52.9801C10321.4 56.8415 10308.5 65.9192 10298.9 77.4585C10280.1 99.7743 10272.7 131.893 10273.5 163.603C10275 228.017 10310.9 307.28 10394.3 348.277L10419.8 296.23C10358.5 266.042 10332.6 208.064 10331.4 162.183C10330.9 138.745 10336.8 122.452 10343.3 114.718C10346.2 111.233 10348.8 109.876 10351 109.347C10353.2 108.813 10357.4 108.545 10364.3 111.295L10385.8 57.4436ZM10394.3 348.277C10444.3 372.87 10499.1 384.661 10542.1 379.652C10563.5 377.162 10585.5 370.077 10601.3 354.522C10618.5 337.604 10624.6 314.518 10620.1 289.617L10563 299.992C10564.6 308.64 10562.3 311.479 10560.6 313.146C10557.6 316.176 10550 320.338 10535.4 322.041C10506.4 325.42 10462.9 317.386 10419.8 296.23L10394.3 348.277ZM10620.1 289.617C10617.3 274.314 10610.8 260.117 10598.9 249.691C10587.1 239.244 10572.7 235.205 10559.3 234.631C10534 233.553 10506.3 244.371 10482.1 257.239C10432.7 283.611 10379.2 329.236 10352.2 363.884L10397.9 399.57C10419.6 371.695 10466.7 331.204 10509.4 308.418C10531.4 296.708 10547.7 292.187 10556.8 292.578C10560.6 292.738 10561.1 293.636 10560.7 293.273C10560.3 292.932 10561.9 293.968 10563 299.992L10620.1 289.617ZM10352.2 363.884C10335.3 385.551 10325.6 418.623 10321.2 451.181C10316.6 484.729 10317.1 522.533 10324.1 556.794C10331 590.228 10345.1 624.896 10371.8 646.55C10401 670.279 10439.2 673.537 10481.1 655.383L10458.1 602.155C10431.4 613.703 10417.2 608.747 10408.3 601.494C10396.8 592.166 10386.7 573.084 10380.9 545.147C10375.4 518.037 10374.9 486.85 10378.7 458.935C10382.6 430.029 10390.4 409.164 10397.9 399.57L10352.2 363.884ZM10481.1 655.383C10498.5 647.838 10512.5 636.475 10521.9 621.604C10531.2 606.827 10535 590.277 10535 573.92C10534.9 541.989 10520.2 509.007 10499.2 481.162C10457.8 425.94 10380.4 376.584 10296.8 391.289L10306.9 448.413C10362 438.719 10419.6 471.71 10452.9 515.991C10469.3 537.897 10476.9 558.956 10477 574.155C10477 581.364 10475.4 586.651 10472.9 590.585C10470.5 594.424 10466.2 598.644 10458.1 602.155L10481.1 655.383ZM10296.8 391.289C10290.4 392.411 10286.1 392.891 10281.5 393.411C10276.7 393.956 10271.4 394.562 10264.2 395.972L10275.4 452.88C10280.1 451.956 10283.5 451.561 10288 451.045C10292.8 450.504 10298.6 449.863 10306.9 448.413L10296.8 391.289ZM10264.2 395.972C10248.3 399.11 10231.4 401.311 10210 405.036C10190.1 408.507 10168.1 413.031 10148.4 420.199C10129.1 427.22 10108.4 437.972 10094.4 456.068C10079.2 475.751 10074.7 500.283 10081.6 527.532L10137.8 513.463C10134.7 501.067 10137.3 495.344 10140.3 491.551C10144.4 486.17 10153 480.224 10168.2 474.715C10183 469.352 10200.8 465.514 10219.9 462.178C10237.7 459.097 10259.3 456.047 10275.4 452.88L10264.2 395.972ZM10081.6 527.532C10088.1 553.656 10112.1 570.043 10132.8 578.413C10155.1 587.478 10182.9 591.304 10209.8 585.993C10237.3 580.564 10264.6 565.308 10282.3 535.999C10299.7 507.194 10305.6 468.534 10298.5 420.214L10241.1 428.638C10247 468.608 10240.9 492.39 10232.7 506.012C10224.7 519.13 10212.8 526.288 10198.6 529.091C10183.8 532.013 10167.4 529.892 10154.6 524.663C10139.9 518.74 10137.6 512.489 10137.8 513.463L10081.6 527.532ZM10298.5 420.214C10295 396.075 10291.8 351.006 10260.7 302.118L10211.8 333.239C10235 369.747 10237.1 401.558 10241.1 428.638L10298.5 420.214Z" fill="#3A6FEA"/>
<ellipse cx="11205.5" cy="386.394" rx="390.412" ry="117.484" transform="rotate(140.65 11205.5 386.394)" fill="#3A6FEA"/>
<ellipse rx="330.362" ry="244.876" transform="matrix(0.420887 0.907113 0.907113 -0.420887 12151.1 450.739)" fill="#3A6FEA"/>
<path d="M13170.2 273C13170.2 397.264 13069.5 498 12945.2 498C12821 498 12720.2 397.264 12720.2 273C12720.2 148.736 12821 48 12945.2 48C13069.5 48 13170.2 148.736 13170.2 273ZM12800.8 273C12800.8 352.775 12865.5 417.445 12945.2 417.445C13025 417.445 13089.7 352.775 13089.7 273C13089.7 193.225 13025 128.555 12945.2 128.555C12865.5 128.555 12800.8 193.225 12800.8 273Z" fill="#3A6FEA"/>
<ellipse cx="13644.5" cy="361.149" rx="37.585" ry="374.142" transform="rotate(140.65 13644.5 361.149)" fill="#3A6FEA"/>
<ellipse cx="14442.8" cy="174.5" rx="324" ry="126.5" stroke="#3A6FEA" stroke-width="94"/>
<path d="M15272 329.51L15232.7 330.885L15311.4 329.51H15272ZM15602.7 329.51L15563.5 332.256L15641.9 333.074L15602.7 329.51ZM15014.2 329.781C15014.5 285.059 15022 218.994 15042.3 166.001C15063.5 110.749 15091 86.5268 15123.4 87.3914L15125.5 8.68618C15039.8 6.40138 14992.8 75.3466 14968.8 137.834C14944 202.58 14935.8 278.825 14935.5 329.238L15014.2 329.781ZM15123.4 87.3914C15157.3 88.2962 15185.1 114.761 15205.7 169.218C15225.6 221.756 15232.7 286.231 15232.7 329.51H15311.4C15311.4 280.278 15303.7 205.591 15279.3 141.309C15255.7 78.9452 15209.6 10.9307 15125.5 8.68618L15123.4 87.3914ZM15311.4 328.134C15309.9 284.899 15316.3 220.829 15338.6 169.241C15360.6 118.586 15393.7 87.4054 15445.3 87.4054V8.67219C15350.4 8.67219 15295.3 71.3155 15266.4 137.939C15237.9 203.632 15230.9 280.297 15232.7 330.885L15311.4 328.134ZM15445.3 87.4054C15472.7 87.4054 15492.2 95.8965 15507.3 108.748C15523 122.204 15535.7 142.198 15545.3 167.489C15564.6 218.703 15567.5 282.599 15563.5 325.946L15641.9 333.074C15646.5 282.597 15643.9 205.757 15618.9 139.692C15606.4 106.343 15587.3 73.5614 15558.4 48.9018C15528.9 23.637 15491.1 8.67219 15445.3 8.67219V87.4054ZM15642 326.764C15639 283.648 15643.5 219.936 15664.9 168.787C15675.5 143.565 15689.3 123.311 15706.5 109.516C15723.1 96.2068 15744.5 87.4054 15774 87.4054V8.67219C15727 8.67219 15688.1 23.3267 15657.2 48.133C15626.9 72.4537 15606.3 104.976 15592.3 138.394C15564.6 204.525 15559.9 281.548 15563.5 332.256L15642 326.764ZM15774 87.4054C15803.4 87.4054 15824.9 96.2068 15841.4 109.516C15858.6 123.311 15872.5 143.565 15883 168.787C15904.4 219.936 15909 283.648 15905.9 326.764L15984.5 332.256C15988 281.548 15983.3 204.525 15955.6 138.394C15941.7 104.976 15921 72.4537 15890.7 48.133C15859.9 23.3267 15820.9 8.67219 15774 8.67219V87.4054Z" fill="#3A6FEA"/>
<path d="M16758.6 344.691L16777.4 363.135L16777.4 363.135L16758.6 344.691ZM16484.5 232.892L16461.9 219.375L16461.9 219.375L16484.5 232.892ZM16224.8 675.117L16201.2 663.239L16200.9 663.919L16200.6 664.618L16224.8 675.117ZM16293 706.172L16315.1 720.506L16315.1 720.506L16293 706.172ZM16368.4 158.36L16347.4 142.354L16368.4 158.36ZM16914.2 439.598C16923.1 411.544 16931.3 379.144 16935.5 349.139C16939.5 320.68 16940.8 288.885 16931 265.651C16925.6 252.909 16915.8 240.461 16899.6 234.838C16884.2 229.481 16867.9 232.11 16853 237.972C16823.7 249.435 16786.7 278.238 16739.7 326.247L16777.4 363.135C16823.8 315.743 16854.1 294.154 16872.2 287.082C16880.9 283.677 16883.3 285.003 16882.3 284.663C16880.6 284.058 16881 282.947 16882.4 286.22C16886.2 295.014 16887.2 313.952 16883.3 341.781C16879.6 368.064 16872.2 397.504 16863.9 423.694L16914.2 439.598ZM16739.7 326.247C16679.5 387.766 16640.3 447.087 16617.7 498.214C16595.6 548.219 16587.9 593.848 16596.7 626.246C16601.2 642.944 16611.1 659.336 16629.1 667.242C16647.1 675.134 16666.2 671.554 16682.6 663.278C16714.4 647.235 16748.5 607.824 16781.8 546.011L16735.4 521.002C16703.4 580.304 16675.8 607.662 16658.9 616.191C16650.9 620.201 16649 618.359 16650.3 618.957C16651.7 619.571 16649.5 619.639 16647.6 612.502C16643.5 597.231 16645.7 565.144 16665.9 519.538C16685.6 475.054 16720.9 420.868 16777.4 363.135L16739.7 326.247ZM16781.8 546.011C16815.7 483.029 16837.2 418.282 16846.5 360.966C16855.6 304.671 16853.4 251.723 16835.6 214.877C16826.4 195.872 16812.2 179.619 16791.8 171.267C16771.5 162.897 16748.9 164.086 16726.1 172.237C16682.1 188.016 16630.5 232.194 16571.5 307.275L16613 339.871C16670.6 266.509 16714.5 232.428 16743.9 221.888C16757.9 216.879 16766.6 217.894 16771.8 220.054C16777.1 222.231 16783 227.212 16788.1 237.865C16799 260.335 16802.8 300.396 16794.4 352.562C16786.2 403.706 16766.7 462.869 16735.4 521.002L16781.8 546.011ZM16571.5 307.275C16511.9 383.12 16464.7 462.173 16431.2 531.738C16397.9 600.746 16377.1 662.244 16371.7 702.852C16370.4 713.134 16369.8 723.106 16370.7 732.063C16371.6 740.327 16374 751.504 16381.8 760.462C16391.4 771.481 16405 774.45 16417.2 772.004C16427.5 769.923 16436.8 764.132 16444.4 758.106C16460.1 745.734 16478.5 724.613 16499.6 695.162C16521 665.282 16546.3 625.319 16575.6 573.892L16529.8 547.777C16501.1 598.211 16476.8 636.507 16456.7 664.434C16436.4 692.789 16421.5 709.021 16411.8 716.699C16406.7 720.698 16405.2 720.606 16406.8 720.292C16410.2 719.612 16416.8 720.417 16421.5 725.731C16424.3 728.985 16423.6 730.92 16423.2 726.797C16422.9 723.366 16422.9 717.806 16424 709.804C16428.3 677.277 16446.4 621.619 16478.7 554.645C16510.7 488.227 16555.9 412.47 16613 339.871L16571.5 307.275ZM16575.6 573.892C16634.6 470.395 16670 380.681 16687.1 307.917C16703.9 236.22 16703.8 177.34 16686.9 138.147C16678.2 117.968 16664.2 101.256 16644.2 92.956C16624.1 84.6304 16602.4 86.5929 16581.9 95.0166C16542.3 111.314 16500.8 154.113 16461.9 219.375L16507.1 246.408C16544.2 184.344 16578.3 153.543 16602 143.793C16613.2 139.193 16620 140.02 16624 141.676C16628.1 143.357 16633.6 147.743 16638.5 159.007C16648.7 182.701 16651.6 228.089 16635.7 295.869C16620.1 362.581 16586.9 447.552 16529.8 547.777L16575.6 573.892ZM16461.9 219.375C16341.4 421.224 16293.6 480.206 16201.2 663.239L16248.3 686.995C16339.6 506.057 16384.4 452.003 16507.1 246.408L16461.9 219.375ZM16200.6 664.618C16185.5 699.41 16169.6 738.29 16157.5 772.308C16151.4 789.298 16146.1 805.385 16142.3 819.312C16138.7 832.604 16135.8 846.073 16135.7 856.912C16135.7 861.686 16136.1 870.62 16141 878.856C16143.9 883.624 16148.6 888.465 16155.4 891.322C16162.1 894.115 16168.5 894.047 16173.4 893.129C16182.1 891.493 16189.1 886.607 16193.6 883.061C16198.8 879.003 16204.1 873.752 16209.7 867.658C16231.8 843.638 16265.6 796.99 16315.1 720.506L16270.9 691.838C16221.3 768.394 16189.6 811.619 16170.9 832.015C16166.3 837.026 16163 840.038 16160.9 841.678C16159.9 842.481 16159.5 842.682 16159.7 842.588C16159.8 842.543 16161.2 841.755 16163.7 841.291C16166.3 840.795 16170.8 840.579 16175.8 842.686C16181 844.857 16184.3 848.475 16186.1 851.518C16187.8 854.271 16188.3 856.5 16188.4 857.137C16188.5 857.879 16188.5 858.036 16188.5 857.35C16188.5 855.919 16188.7 853.142 16189.6 848.713C16190.4 844.424 16191.6 839.228 16193.2 833.171C16196.5 821.043 16201.3 806.352 16207.1 790.055C16218.8 757.499 16234.1 719.766 16249 685.616L16200.6 664.618ZM16315.1 720.506C16440.6 526.775 16525.2 302.48 16545.7 166.977C16550.9 133.151 16552.4 102.821 16548.4 79.1331C16544.8 57.2197 16534.3 29.7928 16505.6 22.9948C16492.4 19.8808 16479.4 22.4272 16467.8 27.1932C16456.1 31.9715 16444.3 39.6594 16432.2 49.4443C16408.2 69.0048 16380 99.7315 16347.4 142.354L16389.4 174.365C16420.8 133.139 16446.1 106.142 16465.5 90.3774C16475.2 82.4998 16482.6 78.1247 16487.8 75.9738C16493.1 73.8106 16494.5 74.5617 16493.4 74.3202C16489 73.2675 16493.5 70.2577 16496.4 87.7066C16499 103.381 16498.4 127.359 16493.6 159.059C16474.4 285.662 16393.2 502.971 16270.9 691.838L16315.1 720.506ZM16347.4 142.354C16244.9 276.633 16192.8 349.164 16165.3 389.87C16137.6 430.911 16133.9 441.236 16131.3 445.775L16177 472.172C16181.5 464.289 16182.6 458.466 16209 419.384C16235.6 379.967 16287 308.403 16389.4 174.365L16347.4 142.354Z" fill="#3A6FEA"/>
<path d="M17120.1 158.123L17861 832.877M17861 832.877L18015.1 616.635M17861 832.877L17953.1 302.284M17861 832.877L18015.1 458.459M17861 832.877L17622.7 58.0112M17861 832.877L17824.9 200.17M17861 832.877L17422.5 48M17861 832.877L17312.4 158.123" stroke="#3A6FEA" stroke-width="29"/>
</svg>
