<svg width="512" height="512" viewBox="0 0 512 512" fill="none" xmlns="http://www.w3.org/2000/svg">
<g clip-path="url(#clip0_16_1881)">
<rect width="512" height="512" fill="#3982FF"/>
<path d="M265.971 75.4495C286.549 102.41 343.766 145.829 408.008 103.823" stroke="black" stroke-width="8.07525" stroke-linecap="round"/>
<path d="M383.62 141.816C377.306 165.45 398.949 187.074 422.577 180.74L595.36 134.42C618.988 128.085 626.881 98.5432 609.567 81.2437L482.957 -45.2582C465.643 -62.5576 436.107 -54.6397 429.793 -31.0059L383.62 141.816Z" fill="#FF5C1B"/>
<path d="M467.044 83.2818C474.575 81.4475 486.581 76.7313 488.101 62.2073M440.076 69.4286C443.121 66.8577 450.323 61.687 454.776 61.5709C460.344 61.4258 450.764 67.0151 444.219 76.9926M482.602 36.5775C478.654 39.1012 470.272 45.4905 468.333 50.8588C465.909 57.5691 475.898 47.2868 489.03 44.4261M457.761 30.0216L472.89 24.876M429.507 56.5854L439.494 43.448" stroke="black" stroke-width="4.84515" stroke-linecap="round"/>
</g>
<defs>
<clipPath id="clip0_16_1881">
<rect width="512" height="512" fill="white"/>
</clipPath>
</defs>
</svg>
