<svg width="512" height="512" viewBox="0 0 512 512" fill="none" xmlns="http://www.w3.org/2000/svg">
<g clip-path="url(#clip0_16_1827)">
<rect width="512" height="512" fill="#3982FF"/>
<path d="M315.549 78.1648C308.531 61.9352 323.349 44.7733 340.428 49.3497L377.234 59.6539C392.713 63.8016 399.567 58.6033 403.69 43.2157L431.165 -59.3224C434.187 -70.6019 445.462 -79.9183 456.741 -76.896L495.368 -66.546C506.647 -63.5236 512.368 -52.1277 509.346 -40.8482L481.252 63.9984C477.01 79.83 483.78 88.7889 499.26 92.9365L535.674 101.666C552.753 106.242 557.005 128.514 542.813 139.06L412.168 236.141C401.225 244.273 385.561 240.076 380.15 227.562L315.549 78.1648Z" fill="#92C8FF"/>
<path d="M437.013 167.955C434.382 161.287 429.651 153.394 418.467 162.986M407.958 160.17C405.328 153.502 400.144 144.825 389.413 155.201" stroke="black" stroke-width="4.92787" stroke-linecap="round"/>
<path d="M456.628 173.874C456.628 173.874 456.013 136.606 422.632 127.661C389.25 118.717 372.556 151.347 372.556 151.347" stroke="black" stroke-width="4.92787" stroke-linecap="round"/>
</g>
<defs>
<clipPath id="clip0_16_1827">
<rect width="512" height="512" fill="white"/>
</clipPath>
</defs>
</svg>
