<svg width="512" height="512" viewBox="0 0 512 512" fill="none" xmlns="http://www.w3.org/2000/svg">
<g clip-path="url(#clip0_16_1815)">
<rect width="512" height="512" fill="#3982FF"/>
<path d="M522.813 388.174C537.005 398.721 532.753 420.992 515.674 425.569L478.648 435.048C463.168 439.196 459.832 447.124 463.955 462.512L491.43 565.05C494.452 576.33 489.347 590.035 478.067 593.057L439.44 603.407C428.161 606.429 417.508 599.421 414.486 588.141L386.393 483.295C382.151 467.463 371.808 463.09 356.329 467.237L320.428 477.885C303.349 482.461 288.531 465.299 295.549 449.07L360.15 299.672C365.561 287.159 381.225 282.961 392.168 291.093L522.813 388.174Z" fill="#92C8FF"/>
<path d="M372.726 371.145C378.338 375.604 386.382 380.074 391.271 366.175M401.78 363.359C407.392 367.819 416.22 372.741 420.325 358.39" stroke="black" stroke-width="4.92787" stroke-linecap="round"/>
<path d="M352.779 375.827C352.779 375.827 371.946 407.795 405.327 398.85C438.709 389.906 436.851 353.3 436.851 353.3" stroke="black" stroke-width="4.92787" stroke-linecap="round"/>
</g>
<defs>
<clipPath id="clip0_16_1815">
<rect width="512" height="512" fill="white"/>
</clipPath>
</defs>
</svg>
