<svg width="512" height="512" viewBox="0 0 512 512" fill="none" xmlns="http://www.w3.org/2000/svg">
<g clip-path="url(#clip0_16_1875)">
<rect width="512" height="512" fill="#3982FF"/>
<path d="M489.759 153.587C484.094 159.252 474.91 159.252 469.245 153.587L353.598 37.9399C347.933 32.2751 347.933 23.0908 353.598 17.426L482.623 -111.599C491.66 -120.636 507.12 -114.417 507.382 -101.64L509.14 -16.1596C509.3 -8.38206 515.567 -2.11536 523.345 -1.95542L608.825 -0.197501C621.602 0.0652587 627.82 15.5253 618.784 24.5619L489.759 153.587Z" fill="#5CB500"/>
<path d="M466.306 82.666C467.238 76.4053 467.105 68.2796 454.317 70.6774M447.523 63.8838C448.456 57.623 448.323 48.6982 435.535 51.8951" stroke="black" stroke-width="4.35165" stroke-linecap="round"/>
<path d="M424.345 41.5044C424.345 41.5044 461.257 16.8747 481.771 54.0561" stroke="black" stroke-width="4.35165" stroke-linecap="round"/>
<path d="M549.244 88.9623C570.655 110.374 636.684 121.015 683.994 73.7052M424.237 -36.044C385.004 -82.4567 431.208 -131.327 452.316 -157.973" stroke="black" stroke-width="7.25275" stroke-linecap="round"/>
</g>
<defs>
<clipPath id="clip0_16_1875">
<rect width="512" height="512" fill="white"/>
</clipPath>
</defs>
</svg>
